<?xml version="1.0" standalone="no"?>
<!DOCTYPE svg PUBLIC "-//W3C//DTD SVG 20010904//EN"
 "http://www.w3.org/TR/2001/REC-SVG-20010904/DTD/svg10.dtd">
<svg version="1.0" xmlns="http://www.w3.org/2000/svg"
 width="1000.000000pt" height="1000.000000pt" viewBox="0 0 1000.000000 1000.000000"
 preserveAspectRatio="xMidYMid meet">
<metadata>
Created by potrace 1.11, written by Peter Selinger 2001-2013
</metadata>
<g transform="translate(0.000000,1000.000000) scale(0.100000,-0.100000)"
fill="#000000" stroke="none">
<path d="M4989 8866 c-2 -2 -53 -7 -114 -10 -60 -4 -123 -9 -140 -11 -16 -2
-50 -6 -75 -9 -119 -13 -315 -46 -425 -71 -5 -1 -17 -4 -25 -7 -13 -5 -174
-50 -190 -54 -3 0 -14 -4 -25 -8 -11 -5 -56 -22 -100 -38 -44 -17 -109 -43
-145 -60 -36 -16 -66 -29 -67 -29 -6 1 -39 -13 -43 -18 -3 -3 -34 -21 -70 -40
-68 -35 -234 -142 -284 -182 -100 -81 -183 -156 -304 -278 -136 -137 -244
-226 -334 -275 -27 -14 -68 -37 -93 -51 -25 -13 -45 -22 -45 -19 0 4 -10 0
-22 -8 -30 -19 -166 -61 -303 -93 -60 -15 -121 -30 -135 -34 -14 -5 -45 -14
-70 -22 -25 -7 -49 -15 -55 -18 -5 -3 -15 -6 -22 -7 -34 -5 -169 -75 -258
-133 -73 -47 -138 -103 -240 -206 -77 -77 -160 -164 -185 -194 -25 -29 -50
-58 -55 -65 -24 -27 -164 -204 -186 -236 -13 -19 -27 -37 -30 -40 -3 -3 -59
-79 -123 -170 -64 -91 -123 -173 -131 -183 -8 -9 -15 -20 -15 -24 0 -9 -101
-131 -157 -188 -26 -28 -75 -82 -108 -120 -33 -39 -63 -72 -66 -75 -3 -3 -26
-34 -50 -70 -24 -36 -46 -67 -49 -70 -13 -13 -50 -70 -50 -79 0 -5 -4 -11 -9
-13 -10 -4 -114 -219 -129 -268 -6 -19 -13 -46 -15 -60 -2 -14 -9 -38 -16 -54
-23 -57 -29 -111 -26 -235 3 -134 7 -165 26 -187 6 -8 8 -14 3 -14 -4 0 -3 -5
4 -12 7 -7 12 -27 12 -45 0 -78 127 -245 299 -393 116 -99 319 -316 408 -435
12 -17 29 -39 37 -50 45 -58 93 -124 112 -150 50 -71 124 -184 124 -189 0 -3
27 -51 60 -107 33 -55 60 -107 60 -114 0 -8 4 -16 8 -19 16 -10 135 -268 197
-426 77 -194 139 -295 199 -324 58 -27 99 -27 153 1 111 58 228 244 243 386 5
40 18 99 30 132 11 33 23 74 26 90 18 126 21 364 9 745 -12 386 -21 540 -41
730 -9 86 -5 215 6 215 1 0 3 11 5 25 2 14 28 124 59 245 30 121 58 236 61
255 3 19 10 51 15 70 5 19 12 51 15 70 3 19 8 43 11 53 3 10 8 32 11 50 9 61
11 72 13 72 1 0 4 14 6 30 7 42 52 168 85 242 16 33 29 64 29 68 0 3 25 43 55
89 90 137 241 265 408 345 87 43 232 88 301 95 22 2 41 5 41 6 0 2 25 7 75 13
65 8 107 25 123 51 9 12 18 56 21 97 4 65 11 114 16 114 1 0 3 9 5 19 34 183
172 361 338 436 62 28 76 32 157 48 47 9 434 9 485 0 75 -14 97 -19 153 -34
32 -8 64 -17 72 -19 27 -6 124 -33 195 -54 39 -12 75 -23 80 -24 6 -1 16 -6
23 -10 20 -13 49 2 54 27 3 13 3 106 1 207 -6 276 -7 299 -17 299 -5 0 -7 3
-4 6 4 3 2 20 -3 37 -9 29 -21 82 -35 157 -13 66 -36 143 -68 219 -38 95 -36
114 12 169 44 50 62 49 121 -4 62 -55 68 -66 77 -130 3 -27 10 -56 15 -65 17
-32 26 -134 44 -499 2 -41 6 -115 9 -165 4 -49 9 -124 11 -165 9 -139 23 -180
64 -175 14 2 29 4 33 4 15 2 86 79 120 131 42 66 169 282 212 363 36 69 106
144 162 174 41 22 135 51 189 58 80 11 141 5 235 -23 30 -9 58 -17 63 -18 4
-1 9 -3 12 -4 3 -1 9 -3 14 -4 5 0 13 -4 17 -8 4 -5 17 -8 29 -8 11 0 25 -4
31 -8 5 -5 25 -15 44 -22 57 -21 305 -144 308 -152 2 -5 12 -8 23 -8 10 0 19
-4 19 -9 0 -5 10 -13 23 -17 12 -4 24 -9 27 -13 3 -3 25 -17 50 -31 l45 -24
385 -3 c373 -2 590 -8 658 -17 98 -15 116 -18 131 -25 84 -41 116 -61 155 -98
25 -24 46 -47 46 -52 0 -5 4 -11 8 -13 14 -6 50 -93 57 -137 11 -72 20 -86
132 -198 171 -170 391 -460 506 -667 66 -120 78 -166 91 -359 3 -42 -14 -95
-65 -202 l-52 -109 42 -83 c137 -268 383 -506 566 -548 59 -14 86 -11 140 15
37 18 125 92 125 106 0 3 6 12 13 19 23 27 32 40 55 85 13 25 34 63 48 85 30
50 45 104 49 175 9 149 16 257 20 280 2 14 7 52 10 85 3 33 11 80 16 105 11
46 14 77 23 211 3 41 7 82 10 90 3 8 7 30 10 50 3 20 10 49 16 64 6 16 9 34 6
42 -3 7 -2 13 3 13 11 0 11 3 15 187 2 89 0 179 -4 200 -5 21 -11 49 -14 63
-7 33 -54 168 -67 192 -6 11 -36 35 -67 55 -52 32 -131 108 -132 125 0 4 -18
37 -39 72 -22 35 -37 67 -34 70 4 3 1 6 -5 6 -7 0 -12 4 -12 10 0 9 -64 106
-80 120 -3 3 -25 30 -50 60 -80 99 -230 251 -320 325 -25 20 -54 44 -65 53
-12 10 -50 39 -85 67 -36 27 -66 53 -68 57 -2 5 -8 8 -14 8 -5 0 -28 15 -51
33 -23 19 -73 54 -111 78 -74 47 -70 46 -241 50 -146 3 -192 17 -420 124 -55
26 -129 60 -165 76 -36 17 -72 34 -80 39 -8 5 -46 26 -85 46 -38 20 -72 40
-75 43 -9 10 -248 132 -272 138 -13 3 -55 8 -93 10 -78 5 -70 10 -163 -91 -56
-60 -109 -87 -175 -87 -55 -1 -159 22 -217 49 -19 8 -37 16 -40 17 -3 0 -34
16 -70 34 -119 61 -245 103 -375 125 -14 3 -33 7 -43 10 -9 2 -44 8 -77 11
-33 4 -73 8 -90 10 -16 2 -57 6 -90 9 -33 4 -82 9 -110 12 -27 2 -81 7 -120
10 -85 6 -781 15 -786 10z"/>
<path d="M7026 7338 c2 -3 30 -24 62 -46 81 -56 246 -209 346 -322 63 -71 87
-122 125 -260 39 -142 74 -217 137 -295 80 -100 88 -105 259 -176 141 -58 260
-148 310 -234 20 -34 48 -121 61 -190 22 -120 23 -139 10 -225 -10 -60 -41
-201 -46 -207 -2 -2 -3 -6 -4 -10 -3 -18 -49 -81 -86 -118 -22 -22 -40 -49
-40 -60 -1 -11 -3 -99 -5 -195 -4 -178 -13 -371 -20 -425 -16 -130 -30 -180
-81 -273 -59 -109 -99 -138 -139 -98 -25 25 -25 32 -4 106 30 108 36 175 34
416 -2 191 -9 329 -20 379 -6 31 -19 71 -24 80 -3 6 -6 15 -7 20 -4 25 -90
187 -172 325 -25 42 -46 90 -48 110 -5 66 -14 165 -19 215 -3 28 -7 79 -10
115 -24 311 -32 355 -66 365 -75 24 -113 -160 -113 -550 0 -287 9 -326 94
-421 56 -64 110 -150 139 -224 19 -48 22 -433 5 -477 -19 -45 -58 -52 -96 -16
-26 24 -118 162 -118 176 0 9 -83 132 -92 135 -4 2 -8 9 -8 15 0 18 -118 146
-151 162 -39 21 -81 19 -107 -5 l-22 -21 21 -42 c12 -23 25 -44 28 -47 3 -3
26 -30 51 -60 25 -30 47 -57 50 -60 8 -8 29 -42 42 -70 7 -14 15 -27 19 -30
20 -16 158 -340 144 -340 -2 0 0 -12 6 -27 6 -16 13 -39 15 -53 3 -14 7 -32
10 -40 4 -8 8 -33 10 -54 3 -22 7 -51 10 -65 3 -14 7 -75 10 -136 7 -139 14
-155 84 -178 30 -9 63 -27 72 -40 17 -22 45 -120 53 -184 2 -18 6 -40 9 -50 3
-10 8 -38 11 -63 2 -25 7 -56 10 -70 3 -14 7 -38 10 -55 3 -16 7 -39 9 -50 3
-11 5 -26 5 -32 1 -21 29 -15 42 9 14 26 16 45 23 211 14 302 33 351 145 365
43 5 115 -31 144 -72 21 -30 22 -41 22 -236 -1 -113 -4 -230 -9 -260 -4 -30
-9 -71 -11 -90 -3 -19 -8 -48 -12 -65 -9 -41 -10 -44 -17 -90 -3 -22 -8 -51
-11 -65 -3 -14 -7 -36 -10 -50 -3 -14 -7 -36 -10 -50 -3 -14 -7 -36 -10 -50
-4 -23 -19 -93 -29 -145 -19 -88 -97 -382 -113 -425 -3 -8 -7 -20 -8 -26 -7
-31 -20 -65 -47 -124 -60 -128 -45 -186 26 -108 52 56 76 86 76 95 0 3 6 14
14 22 26 30 112 206 145 296 18 50 35 97 38 105 4 8 5 19 4 24 -1 4 2 13 7 20
9 10 19 45 28 91 3 11 15 72 29 135 13 63 27 133 30 155 2 22 7 53 10 70 4 16
8 54 10 85 2 30 5 55 6 55 1 0 3 18 4 40 6 83 15 244 20 345 3 58 8 117 10
131 4 23 11 68 19 129 2 8 5 24 9 35 3 11 8 38 11 60 4 22 8 51 11 65 2 14 7
46 10 73 3 26 7 66 10 90 7 51 12 99 20 197 19 217 30 318 40 370 7 37 17 155
20 240 1 41 5 165 9 275 12 346 17 372 77 418 19 14 52 28 74 31 61 10 72 15
92 44 27 41 24 185 -6 272 -13 36 -26 67 -29 70 -4 3 -25 31 -47 64 -21 32
-79 100 -128 150 -192 198 -258 275 -414 481 -5 6 -21 30 -38 55 -16 25 -32
47 -35 50 -3 3 -39 59 -80 125 -41 66 -80 126 -87 133 -7 7 -13 17 -13 21 0 4
-27 36 -59 71 l-60 64 -359 0 c-198 1 -358 -2 -356 -6z"/>
<path d="M6268 7320 c-23 -14 -58 -64 -64 -92 -13 -55 -5 -88 28 -121 40 -40
56 -47 128 -62 34 -6 90 47 90 87 0 22 -63 143 -88 171 -27 28 -63 35 -94 17z"/>
<path d="M6755 6990 c-33 -9 -73 -23 -90 -30 -16 -7 -36 -14 -44 -16 -8 -1
-17 -6 -20 -11 -3 -4 -11 -9 -17 -10 -23 -4 -144 -80 -182 -115 -71 -65 -90
-124 -63 -205 10 -29 23 -46 44 -56 27 -13 36 -13 91 6 33 11 94 41 134 68 57
37 79 46 95 40 27 -10 67 -79 62 -106 -2 -11 -4 -23 -4 -27 -1 -4 -25 -25 -53
-47 -29 -21 -73 -57 -96 -80 -24 -23 -47 -41 -52 -41 -4 0 -13 -6 -19 -14 -6
-7 -24 -16 -40 -19 -16 -3 -36 -13 -44 -22 -15 -14 -14 -20 9 -62 40 -77 117
-171 144 -178 26 -7 102 -16 160 -19 19 -1 40 -4 45 -7 6 -3 75 -5 155 -5
l145 1 65 35 c36 19 67 38 68 42 2 5 8 8 13 8 20 0 90 75 108 116 23 52 49
155 54 214 5 60 -10 92 -108 241 -106 159 -172 226 -270 275 -65 32 -86 38
-153 39 -49 2 -99 -4 -137 -15z"/>
<path d="M2957 6450 c-50 -16 -212 -100 -227 -119 -3 -3 -27 -21 -55 -40 -56
-39 -148 -128 -187 -181 -57 -78 -109 -220 -132 -360 -3 -19 -8 -44 -10 -56
-2 -12 -7 -45 -11 -75 -3 -30 -8 -67 -11 -82 -2 -15 -6 -58 -9 -95 -7 -113
-16 -178 -31 -239 -8 -32 -16 -62 -17 -68 -1 -5 -24 -50 -51 -100 -26 -49 -51
-108 -55 -130 -4 -22 -5 -116 -4 -210 6 -287 6 -1143 -1 -1270 -5 -123 -13
-219 -22 -290 -2 -22 -7 -60 -9 -85 -3 -25 -7 -70 -10 -101 -6 -52 -4 -58 29
-100 23 -29 40 -63 47 -99 41 -196 113 -319 224 -385 50 -29 84 -31 130 -9 63
30 154 148 169 220 10 53 22 200 28 363 1 38 7 49 37 75 20 17 38 34 41 38 20
27 163 32 225 8 14 -5 25 -7 25 -5 0 11 81 -36 116 -67 29 -26 114 -139 114
-153 0 -2 25 -45 55 -96 30 -50 55 -95 55 -99 0 -4 9 -15 20 -25 11 -10 20
-22 20 -26 0 -12 83 -129 92 -129 4 0 8 -5 8 -11 0 -35 234 -275 370 -379 25
-19 47 -37 50 -40 3 -3 25 -19 50 -35 25 -16 47 -32 50 -35 3 -3 32 -19 65
-36 73 -36 109 -38 113 -6 4 27 -47 81 -153 163 -38 29 -75 58 -81 64 -7 5
-31 26 -55 45 -68 54 -229 218 -286 290 -112 144 -181 272 -236 440 -17 52
-40 108 -51 124 -27 36 -104 86 -181 115 -33 12 -76 29 -95 38 -19 8 -42 17
-51 18 -10 2 -35 15 -58 29 -22 14 -44 26 -49 26 -27 0 -182 191 -213 265 -7
17 -18 37 -24 45 -18 24 -58 132 -71 192 -20 90 -20 90 -9 213 9 103 10 378 1
415 -13 60 -30 116 -36 125 -5 6 -15 30 -23 55 -9 25 -26 72 -38 105 -37 101
-40 133 -17 194 30 78 69 148 161 286 117 175 115 172 111 244 -2 34 -8 70
-13 80 -23 43 -39 225 -21 236 5 3 7 12 4 19 -3 8 2 28 10 45 9 17 16 33 16
36 1 53 218 442 295 528 43 48 61 85 48 98 -19 19 -114 18 -176 -1z"/>
<path d="M3590 6297 c-25 -5 -68 -25 -97 -44 -61 -40 -180 -157 -220 -217 -15
-22 -30 -43 -33 -46 -3 -3 -15 -23 -26 -45 -18 -34 -21 -58 -22 -151 0 -257
68 -340 313 -383 52 -9 260 -2 260 9 0 1 11 4 25 6 14 3 43 10 65 16 51 15 47
13 70 23 11 4 42 17 68 27 76 29 177 84 231 125 86 66 109 141 92 304 -6 60
-19 104 -34 113 -17 11 -40 -4 -52 -35 -7 -16 -16 -29 -21 -29 -5 0 -9 -7 -9
-15 0 -17 -65 -143 -86 -167 -32 -35 -65 -27 -92 21 -18 32 -23 55 -29 132 -5
65 -5 66 34 105 37 37 111 100 136 116 25 15 -81 90 -145 102 -13 3 -23 5 -23
6 0 2 -25 8 -90 20 -80 15 -259 19 -315 7z"/>
<path d="M6086 4963 c-2 -3 -123 -11 -286 -19 -117 -6 -161 -8 -241 -13 -35
-2 -341 -298 -388 -375 -32 -53 -65 -132 -76 -178 -24 -109 -33 -181 -40 -333
-3 -56 1 -68 63 -195 37 -74 69 -137 72 -140 3 -3 14 -23 25 -45 11 -22 22
-42 25 -45 3 -3 19 -27 35 -55 26 -45 73 -114 137 -200 39 -53 187 -193 218
-207 17 -7 30 -16 30 -19 0 -4 21 -12 46 -19 65 -18 103 -15 214 17 104 31
147 21 134 -31 -12 -51 -77 -87 -266 -150 -73 -25 -150 -52 -170 -60 -21 -9
-39 -16 -40 -15 -2 0 -16 -5 -33 -11 -30 -12 -49 -17 -95 -26 -14 -3 -33 -7
-42 -10 -24 -7 -89 -18 -186 -30 -26 -3 -60 -8 -77 -10 -16 -3 -111 -6 -209
-8 -210 -4 -260 5 -414 75 -26 12 -49 24 -52 28 -3 3 -23 15 -44 26 -58 29
-156 123 -156 149 0 20 -51 92 -77 109 -6 4 -18 13 -25 20 -79 74 -198 122
-211 85 -5 -16 13 -57 36 -83 26 -28 45 -66 51 -101 2 -16 5 -29 6 -29 1 0 3
-11 6 -24 8 -45 41 -107 134 -251 160 -249 180 -280 180 -285 0 -9 52 -67 130
-146 41 -42 100 -104 130 -139 99 -115 175 -185 245 -227 120 -72 176 -138
216 -255 25 -75 29 -94 33 -173 1 -33 6 -70 10 -82 12 -37 87 -77 268 -142 95
-34 205 -74 243 -87 39 -14 79 -30 90 -34 11 -5 40 -16 65 -24 25 -8 70 -24
100 -36 75 -30 91 -32 295 -35 135 -3 196 0 245 11 36 8 72 17 80 18 8 2 22 6
30 9 8 4 52 20 97 36 110 40 165 69 248 132 132 99 229 205 358 391 66 96 75
123 75 227 0 75 -3 95 -19 116 l-20 25 -50 -20 c-62 -23 -131 -75 -246 -186
-155 -150 -283 -254 -311 -254 -6 0 -12 -4 -14 -9 -10 -28 -213 -93 -295 -95
-24 0 -43 -3 -43 -6 0 -6 -161 -4 -240 4 -172 16 -355 83 -495 180 -89 62
-139 108 -230 211 -33 37 -146 208 -143 215 2 3 -6 19 -18 35 -28 40 -100 209
-115 268 -9 36 -9 54 0 73 12 28 81 63 124 64 16 0 36 4 45 9 9 5 35 11 58 14
22 3 52 10 65 16 21 9 137 36 194 46 11 2 37 8 57 13 20 5 39 8 42 5 2 -3 13
0 23 5 10 5 38 12 63 15 25 4 70 11 100 16 30 5 69 12 85 15 17 3 66 10 110
16 44 6 91 12 105 15 14 2 45 7 70 9 25 3 72 8 105 11 33 4 76 9 95 11 19 2
119 6 221 9 l185 6 76 -73 c117 -113 120 -124 104 -389 -9 -152 -8 -154 86
-144 67 7 164 32 186 49 9 6 11 22 8 45 -19 115 -27 321 -13 321 5 0 5 5 2 10
-10 16 15 120 41 171 23 46 111 180 124 189 4 3 22 34 41 70 19 36 37 67 40
70 3 3 10 19 14 35 4 17 10 35 11 40 29 89 42 185 49 334 4 104 -10 141 -55
141 -33 0 -37 -8 -55 -115 -8 -45 -37 -139 -47 -149 -4 -6 -8 -16 -8 -24 0
-25 -100 -154 -155 -201 -59 -51 -68 -54 -132 -37 -73 19 -272 12 -348 -11
-37 -11 -80 -14 -263 -19 -194 -5 -228 1 -252 45 -15 29 -12 67 6 82 13 11 26
10 77 -9 97 -35 128 -30 156 27 11 20 19 39 19 44 1 25 17 75 32 101 10 17 39
69 66 116 27 47 60 110 74 140 14 30 27 57 30 60 3 3 6 10 7 15 1 6 9 28 17
50 8 22 17 56 20 75 3 20 22 83 42 140 39 113 47 173 33 260 -5 30 -11 78 -14
105 -6 55 -10 73 -17 95 -3 8 -13 38 -22 65 -53 158 -214 320 -410 411 -69 32
-74 33 -194 31 -68 -1 -125 -3 -126 -4z"/>
<path d="M4136 4158 c-18 -18 -57 -67 -87 -108 -69 -96 -72 -100 -146 -182
-35 -38 -63 -76 -63 -84 0 -20 28 -62 70 -104 56 -56 105 -120 144 -186 72
-124 120 -76 80 81 -20 80 -23 101 -24 160 -2 62 9 126 22 143 6 6 8 12 5 12
-4 0 9 42 27 93 66 181 54 255 -28 175z"/>
</g>
</svg>
